<?xml version="1.0" standalone="no"?>
<!DOCTYPE svg PUBLIC "-//W3C//DTD SVG 20010904//EN"
 "http://www.w3.org/TR/2001/REC-SVG-20010904/DTD/svg10.dtd">
<svg version="1.0" xmlns="http://www.w3.org/2000/svg"
 width="1024.000000pt" height="1024.000000pt" viewBox="0 0 1024.000000 1024.000000"
 preserveAspectRatio="xMidYMid meet">

<g transform="translate(0.000000,1024.000000) scale(0.100000,-0.100000)"
fill="#000000" stroke="none">
<path d="M5064 9240 c-41 -103 -195 -399 -237 -456 -25 -34 -75 -83 -111 -110
-36 -27 -66 -52 -66 -56 0 -21 180 -3 290 28 21 7 18 1 -20 -41 -125 -134
-235 -220 -356 -277 -62 -29 -65 -32 -43 -40 31 -12 210 -15 278 -5 l54 8 -59
-49 c-85 -70 -178 -133 -266 -182 -43 -23 -78 -45 -78 -50 0 -33 356 -23 423
12 16 8 17 7 8 -10 -12 -23 -110 -109 -218 -190 l-82 -62 -110 0 -111 0 -82
60 c-46 33 -101 75 -122 93 l-39 34 69 -13 c76 -15 247 -17 279 -4 18 7 18 9
-10 20 -108 42 -208 106 -293 185 l-57 55 35 -8 c78 -16 261 -5 259 16 0 4
-27 20 -59 35 -70 33 -225 151 -258 195 l-22 32 27 -11 c37 -14 223 -25 223
-13 0 6 -14 18 -30 28 -78 45 -139 127 -226 298 l-84 167 -75 -147 c-84 -165
-136 -234 -219 -296 l-56 -41 100 -3 c58 -1 108 2 120 8 38 20 20 -8 -37 -60
-70 -64 -191 -144 -239 -160 -81 -27 -4 -54 137 -48 l96 4 -55 -51 c-64 -59
-180 -138 -239 -162 -61 -26 -55 -41 20 -45 63 -4 199 6 239 17 35 9 -51 -66
-147 -130 l-80 -53 -345 -5 c-331 -4 -349 -5 -446 -30 -219 -56 -351 -125
-506 -262 -171 -152 -273 -341 -419 -779 -119 -358 -191 -643 -204 -812 -4
-43 -8 -97 -10 -119 -2 -22 -7 -161 -11 -310 l-7 -270 -28 -33 c-29 -32 -29
-34 -29 -162 0 -100 -3 -130 -13 -130 -7 0 -32 -12 -56 -27 -31 -21 -50 -44
-71 -88 -26 -55 -29 -68 -27 -161 2 -90 5 -107 32 -159 23 -45 42 -66 79 -90
l49 -30 246 2 c135 1 347 5 471 8 l225 6 42 -88 c45 -93 111 -177 176 -224
l40 -29 -935 0 c-790 0 -937 -2 -947 -14 -8 -9 -11 -47 -9 -107 l3 -94 267 -5
267 -5 -49 -59 c-72 -87 -117 -178 -145 -291 -4 -16 -11 -86 -14 -155 l-6
-125 -137 -3 -137 -3 -25 -30 c-42 -50 -31 -120 24 -152 22 -14 54 -17 154
-17 l126 0 0 -159 c0 -188 15 -280 63 -384 78 -170 182 -280 332 -353 125 -60
202 -77 358 -76 71 1 137 4 147 7 22 7 33 2 495 -205 187 -83 423 -189 525
-235 224 -100 295 -123 425 -136 63 -6 662 -9 1635 -7 l1535 3 80 23 c92 26
143 48 771 334 258 119 486 221 506 228 38 14 77 10 605 -60 227 -31 256 -30
299 11 48 45 40 104 -26 189 -32 40 -330 524 -330 535 0 4 23 34 51 68 27 33
67 96 87 139 l37 78 105 0 c125 0 172 11 195 46 19 30 22 82 6 113 -20 37 -50
45 -163 42 l-108 -2 0 134 c0 207 -33 313 -142 447 l-48 60 296 0 c184 0 303
4 315 10 16 9 19 22 19 95 0 63 -4 87 -16 99 -14 14 -109 16 -895 16 l-880 0
65 61 c75 70 135 155 162 229 l18 51 256 -6 c140 -3 351 -8 467 -11 202 -5
215 -4 263 17 60 26 113 83 134 147 10 28 16 80 16 133 0 113 -25 184 -80 232
l-38 32 -5 385 c-4 406 -10 471 -58 628 -27 86 -48 126 -96 185 -21 26 -54 84
-73 129 -47 117 -352 803 -410 923 -172 359 -443 565 -834 635 -85 16 -154 20
-309 20 l-200 0 -111 75 c-119 80 -185 133 -151 120 31 -12 235 -18 279 -8
l38 8 -85 44 c-47 23 -121 72 -164 108 -115 95 -114 93 -62 81 52 -12 191 -5
234 12 l30 11 -74 35 c-89 41 -179 105 -246 174 -43 44 -46 50 -23 41 42 -16
148 -23 198 -13 l45 8 -40 21 c-88 46 -181 164 -280 356 -27 53 -52 96 -55 96
-3 0 -37 -67 -77 -147 -78 -159 -135 -237 -220 -300 -29 -22 -50 -42 -46 -46
11 -10 114 -6 181 8 l63 13 -43 -45 c-54 -56 -164 -138 -248 -185 -53 -29 -61
-37 -46 -43 26 -10 203 -11 246 -1 l35 8 -50 -46 c-65 -60 -180 -137 -255
-172 -33 -15 -60 -30 -60 -34 0 -17 193 -21 268 -7 l76 15 -49 -44 c-28 -24
-82 -66 -122 -93 l-71 -50 -116 0 -116 0 -77 55 c-65 46 -253 203 -253 210 0
1 24 -5 53 -13 58 -16 367 -23 402 -9 17 7 7 15 -60 49 -100 50 -205 123 -281
193 -59 54 -59 54 -24 45 39 -11 252 -13 288 -3 20 5 13 11 -52 44 -103 51
-216 137 -309 232 -43 44 -76 82 -73 84 2 2 28 -3 57 -11 61 -17 176 -25 229
-17 l35 6 -46 28 c-25 15 -76 58 -113 97 -62 64 -76 88 -181 302 l-113 233
-18 -45z m2021 -1650 c249 -28 441 -114 609 -270 53 -50 166 -195 166 -214 0
-3 -1280 -6 -2846 -6 -2264 0 -2844 3 -2838 13 30 51 103 143 161 198 154 150
347 243 573 274 121 17 4029 21 4175 5z m-2116 -576 l31 -6 0 -529 0 -529
-622 -1 c-343 0 -1062 0 -1598 0 l-975 1 3 32 c16 156 148 604 284 965 l23 63
1335 2 c734 2 1369 4 1411 6 42 1 91 -1 108 -4z m1159 -4 l92 0 0 -529 0 -530
-567 -3 c-313 -2 -570 -2 -573 0 -7 5 -12 979 -5 1027 l6 41 477 -3 c262 -2
519 -3 570 -3z m304 -551 l-2 -519 -70 0 -70 0 0 535 0 534 68 3 c58 3 68 0
72 -15 3 -10 4 -252 2 -538z m1058 502 l45 -40 -381 -1 c-425 0 -455 -4 -511
-62 -18 -18 -37 -46 -42 -61 -7 -18 -11 -143 -11 -335 0 -348 1 -351 79 -407
l43 -30 351 0 c328 0 353 -1 372 -18 11 -10 36 -27 55 -37 19 -11 31 -19 25
-19 -5 -1 -234 -2 -508 -3 l-497 -3 0 532 0 533 453 2 c248 2 459 0 467 -4 8
-4 35 -26 60 -47z m337 49 l93 0 15 -36 c19 -46 20 -44 -15 -44 -19 0 -42 -11
-62 -29 -30 -27 -33 -35 -32 -83 1 -56 18 -96 210 -513 95 -208 112 -236 161
-266 35 -22 108 -31 152 -18 8 2 25 -12 38 -31 l24 -35 -88 -6 c-48 -4 -112
-7 -141 -8 l-53 -1 -130 268 c-332 678 -347 706 -395 761 l-48 54 89 -6 c50
-4 132 -7 182 -7z m156 -182 c23 -32 214 -431 265 -553 13 -33 35 -81 48 -107
36 -71 33 -81 -18 -73 -24 4 -51 14 -61 23 -20 18 -75 130 -210 427 -109 242
-114 258 -92 291 21 32 39 30 68 -8z m-803 1 c-14 -11 -132 -123 -263 -247
-131 -125 -241 -228 -245 -230 -13 -4 -2 431 11 447 7 8 26 22 42 33 27 16 54
18 255 18 l225 -1 -25 -20z m439 -57 c12 -27 9 -31 -111 -148 -180 -176 -365
-353 -428 -410 -30 -28 -73 -67 -95 -87 -35 -33 -46 -37 -92 -37 l-52 0 237
228 c334 322 516 491 523 486 4 -2 12 -16 18 -32z m-26 -303 c12 -7 25 -17 29
-23 12 -17 9 -321 -2 -352 -21 -54 -77 -71 -121 -35 -23 19 -24 24 -27 199
l-3 180 27 21 c30 23 64 27 97 10z m225 -166 c34 -71 62 -135 62 -144 0 -25
-50 -69 -77 -69 -14 0 -21 4 -18 10 3 6 2 10 -4 10 -5 0 -13 -4 -16 -10 -3 -5
-19 -10 -36 -10 l-29 0 0 141 c0 131 2 143 23 169 12 16 25 29 28 29 3 1 33
-56 67 -126z m175 -282 c20 -37 37 -71 37 -74 0 -10 -394 5 -405 15 -7 6 -4
13 7 19 9 5 24 16 32 24 10 11 37 15 96 15 86 0 133 14 164 49 11 11 22 21 25
21 4 0 23 -31 44 -69z m-2993 -191 l0 -40 -1610 0 c-1527 0 -1610 1 -1610 18
0 9 3 27 6 40 l6 22 1604 0 1604 0 0 -40z m1218 3 l-3 -38 -567 -3 -568 -2 0
40 0 40 571 0 570 0 -3 -37z m212 -3 l0 -40 -70 0 -70 0 0 40 0 40 70 0 70 0
0 -40z m1656 5 c7 -19 14 -37 14 -40 0 -3 -358 -5 -795 -5 l-795 0 0 40 0 40
781 0 780 0 15 -35z m373 4 c6 -18 11 -36 11 -40 0 -5 -62 -9 -138 -9 l-139 0
-16 40 -15 40 143 0 143 0 11 -31z m-319 -156 c5 -5 3 -874 -2 -877 -2 -1 -18
-14 -36 -29 -30 -24 -42 -27 -112 -27 -53 0 -83 4 -92 14 -8 7 -26 44 -42 82
-37 93 -99 178 -171 237 -108 88 -117 90 -315 95 -244 6 -846 -8 -829 -19 8
-5 199 -8 424 -7 357 2 419 0 478 -15 89 -22 203 -75 249 -116 82 -72 167
-243 167 -336 l0 -50 -19 23 c-10 12 -26 44 -36 70 -31 87 -74 174 -109 221
-57 79 -184 157 -285 177 -25 5 -236 9 -470 9 l-425 0 -3 277 -2 277 147 3
c228 5 1477 -3 1483 -9z m-5798 -9 c-49 -34 -56 -66 -57 -251 l0 -173 38 -37
37 -38 233 -3 c261 -4 293 1 332 52 24 32 25 37 25 200 0 185 -9 224 -59 251
-23 12 113 14 1042 15 l1067 0 0 -459 0 -458 -286 -1 c-266 -1 -285 0 -278 16
4 9 9 40 12 68 3 46 0 55 -26 85 l-30 34 -179 0 c-98 0 -191 -4 -206 -8 -21
-6 -34 -20 -48 -53 -25 -55 -19 -94 22 -146 17 -21 25 -38 20 -38 -5 0 -12 4
-15 8 -9 14 -86 14 -86 0 0 -11 46 -13 228 -10 125 2 239 7 255 12 15 5 27 5
27 1 0 -15 -42 -21 -165 -23 -109 -1 -113 -2 -45 -7 118 -9 70 -18 -115 -22
-93 -2 -173 -8 -176 -13 -4 -5 -10 6 -14 24 -9 39 -67 140 -98 167 -12 11 -35
29 -52 39 l-30 19 28 -35 c29 -36 63 -104 73 -146 5 -21 3 -24 -24 -24 -23 0
-35 9 -58 41 -42 61 -109 116 -164 134 -41 14 -109 15 -516 13 -465 -3 -469
-3 -519 -26 -54 -25 -115 -78 -146 -130 -12 -17 -25 -30 -29 -27 -5 3 -11 1
-15 -5 -3 -5 -15 -10 -27 -10 -16 0 -19 4 -14 24 l6 25 -105 -1 c-90 0 -109 3
-134 21 -16 11 -49 29 -73 40 -24 10 -56 33 -71 51 -28 33 -29 40 -31 240 l-1
65 -32 1 -33 1 -1 -111 c0 -61 0 -141 1 -178 1 -67 1 -68 -24 -68 l-26 0 0
435 0 435 292 0 c268 0 291 -1 270 -16z m3870 -436 c-2 -249 -5 -454 -6 -455
-1 -1 -256 -3 -566 -3 l-565 -2 0 456 0 456 570 0 570 0 -3 -452z m218 140
l-1 -313 113 -5 c73 -3 130 -1 163 8 61 15 569 17 665 2 175 -28 310 -152 366
-337 l13 -43 -33 0 c-29 0 -35 4 -41 28 -11 46 -56 114 -117 178 -75 78 -147
112 -261 124 -106 10 -469 2 -527 -12 -109 -27 -208 -108 -272 -226 -37 -66
-61 -92 -86 -92 -6 0 -7 14 -1 38 5 20 9 40 9 45 0 4 -29 7 -65 7 l-65 0 0
455 0 455 70 0 71 0 -1 -312z m2074 290 c9 -33 17 -187 8 -159 -4 14 -13 26
-20 29 -8 2 -10 -2 -5 -14 5 -13 3 -15 -8 -9 -11 7 -11 5 1 -10 14 -16 13 -17
-8 -11 -15 5 -22 3 -22 -5 0 -7 -3 -10 -6 -6 -4 3 -21 -12 -40 -34 -41 -49
-48 -89 -42 -251 5 -132 16 -168 57 -190 22 -12 23 -16 17 -82 -4 -39 -12 -74
-19 -78 -6 -4 -7 -8 -2 -8 6 0 3 -5 -5 -10 -8 -5 -54 -10 -102 -10 l-88 0 0
435 0 435 139 0 c135 0 139 -1 145 -22z m-5656 -54 c63 -17 -1 -24 -228 -24
-224 0 -281 6 -237 23 17 8 438 8 465 1z m30 -101 c3 -10 -54 -13 -262 -13
-158 0 -266 4 -266 9 0 15 42 18 289 17 178 -1 235 -4 239 -13z m5681 -119
c18 -23 21 -41 21 -139 0 -98 -3 -116 -21 -139 -12 -15 -30 -26 -44 -26 -14 0
-32 11 -44 26 -18 24 -21 41 -21 141 0 108 1 115 25 138 31 32 58 32 84 -1z
m-5791 9 c-54 -2 -142 -2 -195 0 -54 1 -10 3 97 3 107 0 151 -2 98 -3z m112
-28 c0 -13 -36 -15 -260 -15 -224 0 -260 2 -260 15 0 13 36 15 260 15 224 0
260 -2 260 -15z m-20 -109 c-17 -17 -442 -21 -472 -4 -20 11 14 14 222 18 135
3 249 3 253 1 5 -2 4 -8 -3 -15z m1520 -376 c0 -6 -67 -10 -181 -10 -117 0
-178 3 -174 10 4 6 75 10 181 10 109 0 174 -4 174 -10z m2827 -26 c-3 -3 -12
-4 -19 -1 -8 3 -5 6 6 6 11 1 17 -2 13 -5z m84 -25 c27 -12 48 -24 45 -26 -3
-3 -19 2 -37 11 -18 9 -41 13 -52 10 -12 -4 -17 -2 -13 4 3 6 0 13 -6 15 -10
4 -10 6 0 6 7 1 36 -9 63 -20z m-2911 -29 c0 -6 -65 -10 -175 -10 -110 0 -175
4 -175 10 0 6 65 10 175 10 110 0 175 -4 175 -10z m2508 -15 c-2 -1 -12 -7
-24 -13 -16 -8 -21 -8 -21 3 0 7 7 11 15 7 10 -3 13 -1 8 6 -5 8 -2 10 9 6 9
-4 15 -8 13 -9z m-62 -13 c-3 -3 0 -12 6 -21 10 -13 10 -14 -2 -4 -16 15 -23
46 -8 37 5 -3 7 -9 4 -12z m-46 -5 c0 -2 -12 -14 -27 -28 l-28 -24 24 28 c23
25 31 32 31 24z m-3573 -29 c202 -75 257 -343 102 -499 -143 -144 -390 -112
-497 64 -37 61 -49 133 -38 211 9 57 72 153 125 190 84 59 207 72 308 34z
m4017 -12 c73 -43 110 -80 142 -143 76 -151 5 -335 -159 -408 -237 -107 -497
115 -427 365 25 92 115 180 210 207 73 21 179 11 234 -21z m181 24 c3 -5 1
-10 -4 -10 -6 0 -11 5 -11 10 0 6 2 10 4 10 3 0 8 -4 11 -10z m-35 -35 c13
-14 21 -25 18 -25 -2 0 -15 11 -28 25 -13 14 -21 25 -18 25 2 0 15 -11 28 -25z
m-594 -20 c-1 -8 -5 -17 -8 -21 -5 -4 -4 16 1 34 3 9 9 -1 7 -13z m-4780 -13
c33 -26 44 -56 44 -117 0 -49 -4 -60 -29 -86 l-29 -29 -205 0 c-258 0 -253 -2
-251 123 3 135 -12 127 237 127 186 0 215 -3 233 -18z m769 8 c3 -5 1 -10 -4
-10 -6 0 -11 5 -11 10 0 6 2 10 4 10 3 0 8 -4 11 -10z m5885 -88 c0 -95 -1
-99 -28 -125 l-28 -27 -196 0 -196 0 -31 35 c-27 31 -31 43 -31 91 0 50 3 59
34 90 l34 34 221 0 221 0 0 -98z m-1908 29 c-9 -16 -18 -28 -21 -26 -4 5 27
55 34 55 2 0 -4 -13 -13 -29z m-3223 -96 l0 -20 -9 20 c-6 16 -9 13 -13 -20
-3 -33 -4 -31 -2 8 3 57 -12 50 -17 -8 l-3 -40 -5 47 c-3 26 -1 44 4 40 5 -3
6 8 3 25 -3 17 -3 34 1 38 9 9 42 -63 41 -90z m-836 58 c-3 -7 -6 -13 -8 -13
-2 0 -5 6 -8 13 -3 8 1 14 8 14 7 0 11 -6 8 -14z m4837 -65 c0 -4 -4 -8 -9 -8
-6 0 -12 4 -15 8 -3 5 1 9 9 9 8 0 15 -4 15 -9z m-53 -20 c-3 -8 -6 -5 -6 6
-1 11 2 17 5 13 3 -3 4 -12 1 -19z m-4830 -90 c-2 -18 -4 -4 -4 32 0 36 2 50
4 33 2 -18 2 -48 0 -65z m63 82 c0 -5 -2 -10 -4 -10 -3 0 -8 5 -11 10 -3 6 -1
10 4 10 6 0 11 -4 11 -10z m3937 -82 c-2 -18 -4 -4 -4 32 0 36 2 50 4 33 2
-18 2 -48 0 -65z m63 64 c0 -15 -2 -15 -10 -2 -13 20 -13 33 0 25 6 -3 10 -14
10 -23z m-1 -74 c-1 -19 9 -56 23 -85 14 -29 23 -55 20 -58 -3 -3 -19 22 -34
56 -28 62 -37 119 -18 119 6 0 10 -15 9 -32z m-4000 0 c-2 -24 10 -59 41 -120
15 -29 16 -36 5 -31 -9 3 -18 16 -21 29 -3 13 -10 24 -16 24 -5 0 -6 5 -3 10
3 6 3 15 -1 21 -5 8 -9 8 -14 -1 -5 -9 -9 -9 -14 -1 -4 6 -2 11 4 11 6 0 8 10
4 25 -6 25 0 55 11 55 4 0 5 -10 4 -22z m791 -42 c0 -3 -4 -8 -10 -11 -5 -3
-10 -1 -10 4 0 6 5 11 10 11 6 0 10 -2 10 -4z m4011 -39 c-10 -9 -11 -8 -5 6
3 10 9 15 12 12 3 -3 0 -11 -7 -18z m-4821 -11 c0 -3 -4 -8 -10 -11 -5 -3 -10
-1 -10 4 0 6 5 11 10 11 6 0 10 -2 10 -4z m3409 -190 l31 -31 140 -3 c160 -4
193 5 227 64 l20 35 28 -43 c46 -71 96 -128 138 -159 l40 -29 -1632 0 -1633 0
57 52 c32 29 76 80 99 115 l42 62 18 -33 c31 -57 58 -66 205 -66 195 0 230 20
239 140 l5 70 966 2 966 3 6 -74 c6 -65 10 -77 38 -105z m1390 142 c-31 -61
-39 -70 -54 -58 -9 8 -14 6 -19 -6 -4 -9 -12 -14 -21 -10 -13 4 -14 2 -5 -14
8 -15 8 -20 -1 -18 -6 2 -14 -3 -16 -10 -3 -8 2 -10 14 -6 15 5 15 4 3 -5 -22
-15 -36 4 -19 26 12 16 11 16 -8 -1 -13 -10 -20 -23 -17 -27 3 -5 -4 -9 -15
-9 -28 0 -52 -11 -45 -21 3 -5 -2 -6 -10 -3 -8 3 -31 -3 -53 -14 -21 -11 -51
-22 -68 -25 -86 -16 -107 -18 -101 -8 3 5 -6 14 -21 20 -23 8 -17 9 28 4 94
-9 241 45 306 114 29 31 74 53 72 35 -4 -28 5 -20 31 26 36 62 49 69 19 10z
m-3459 -2 c0 -33 -1 -34 -32 -30 -31 4 -32 4 -11 -9 22 -12 22 -13 3 -25 -25
-15 -160 -16 -160 -1 0 6 7 8 16 5 8 -3 12 -2 9 3 -3 5 3 12 12 14 10 3 1 5
-19 6 -20 0 -49 6 -64 11 -24 10 -26 9 -21 -10 4 -16 2 -19 -7 -11 -6 5 -13
25 -14 43 l-2 33 145 3 145 3 0 -35z m2400 20 c0 -45 -13 -74 -36 -79 -13 -2
-21 0 -18 4 3 5 13 9 22 10 12 0 13 2 3 6 -11 5 -11 7 0 14 8 5 -42 9 -123 9
l-138 0 0 25 0 25 145 0 c116 0 145 -3 145 -14z m-2967 -18 c-3 -17 -2 -19 5
-9 6 8 12 9 16 3 14 -23 -95 -139 -175 -185 -65 -37 -148 -62 -162 -48 -8 8
-4 11 17 11 16 0 25 4 21 10 -4 7 3 8 20 4 18 -5 25 -3 23 7 -2 7 5 15 16 17
13 3 16 0 11 -8 -4 -7 19 2 53 20 33 17 63 38 66 46 7 19 -26 5 -42 -18 -8
-11 -21 -18 -30 -17 -10 2 -27 0 -39 -5 -12 -4 -30 -9 -40 -11 -10 -2 -34 -9
-53 -14 -65 -20 -139 -8 -245 39 -45 20 -134 90 -148 117 -5 10 10 0 34 -23
24 -22 58 -50 74 -62 46 -30 148 -62 202 -62 87 0 195 39 260 94 17 14 34 22
38 18 5 -4 5 -2 2 4 -8 14 17 37 27 26 4 -4 7 -2 6 3 -4 19 0 38 7 32 3 -4 12
2 20 13 18 26 22 25 16 -2z m3997 -8 c0 -5 -4 -10 -10 -10 -5 0 -10 5 -10 10
0 6 5 10 10 10 6 0 10 -4 10 -10z m-655 -47 c30 -36 34 -43 13 -28 -23 17 -66
75 -56 75 2 0 22 -21 43 -47z m-84 10 c13 -16 12 -17 -3 -4 -10 7 -18 15 -18
17 0 8 8 3 21 -13z m-535 -11 c-10 -2 -22 0 -28 6 -6 6 0 7 19 4 21 -5 23 -7
9 -10z m169 10 c-11 -2 -24 -8 -29 -12 -5 -5 1 -6 14 -3 16 4 21 3 16 -5 -4
-7 -30 -12 -59 -11 -41 1 -47 3 -27 9 24 8 24 8 3 9 -13 1 -23 5 -23 11 0 5
27 9 63 8 34 -1 53 -3 42 -6z m-3535 -70 c12 11 12 10 2 -3 -10 -14 -10 -18 3
-23 8 -3 15 0 15 7 1 7 9 2 19 -10 10 -12 22 -19 26 -15 5 4 5 -1 2 -10 -4
-12 -2 -15 7 -12 8 3 42 -7 77 -21 35 -14 86 -29 113 -32 42 -5 46 -8 27 -15
-13 -4 -27 -6 -31 -3 -5 3 -28 7 -53 10 -89 9 -212 81 -281 165 -27 31 -25 30
15 -8 37 -35 47 -40 59 -30z m-39 41 c13 -16 12 -17 -3 -4 -10 7 -18 15 -18
17 0 8 8 3 21 -13z m4649 -18 c-7 -9 -15 -13 -17 -11 -7 7 7 26 19 26 6 0 6
-6 -2 -15z m-654 -6 c4 -8 9 -7 15 2 6 10 9 8 9 -7 0 -24 23 -48 34 -36 4 4 6
1 4 -7 -1 -7 3 -16 11 -19 9 -3 11 0 7 9 -4 8 1 4 12 -9 13 -14 26 -20 37 -16
10 4 15 2 13 -7 -2 -9 5 -13 20 -12 12 2 22 -2 22 -8 0 -5 5 -7 12 -3 6 4 8 3
5 -3 -4 -6 11 -13 36 -18 23 -4 36 -9 29 -12 -27 -10 -151 38 -210 82 -65 49
-91 75 -74 75 6 0 14 -5 18 -11z m112 -27 c21 -17 22 -18 3 -18 -11 0 -18 4
-15 8 2 4 -4 11 -13 17 -10 6 -13 10 -8 10 6 1 20 -7 33 -17z m-3603 -52 c-3
-5 -12 -10 -18 -10 -7 0 -6 4 3 10 19 12 23 12 15 0z m3960 -40 c-22 -10 -58
-21 -80 -24 l-40 -6 45 14 c25 8 56 18 70 24 43 18 47 11 5 -8z m-5065 -363
l65 -12 3 -133 c2 -102 0 -132 -10 -132 -7 0 -51 7 -98 15 -117 21 -272 20
-317 -1 -67 -32 -65 -23 -71 -462 -5 -451 -3 -467 56 -504 32 -20 48 -22 137
-21 55 1 132 6 170 13 39 6 87 14 108 17 l37 5 0 -131 0 -130 -32 -5 c-102
-17 -205 -28 -298 -33 -263 -13 -423 77 -490 276 -20 61 -21 78 -18 509 l3
447 31 66 c41 86 89 138 163 177 98 53 155 62 336 57 88 -3 189 -11 225 -18z
m1113 -474 c75 -263 150 -530 167 -593 18 -63 45 -160 61 -214 16 -55 29 -103
29 -106 0 -4 -42 -10 -92 -14 -51 -3 -130 -9 -174 -12 l-82 -6 -17 80 c-10 44
-20 84 -24 89 -3 5 -64 6 -151 2 -80 -4 -175 -8 -211 -8 l-66 -1 -12 -57 c-7
-32 -17 -74 -22 -93 l-9 -36 -142 -12 c-190 -16 -202 -16 -194 4 6 15 126 452
333 1212 l66 242 202 0 202 0 136 -477z m767 285 c106 -150 216 -303 257 -357
4 -6 34 33 190 249 81 112 165 226 186 252 l37 48 95 0 95 0 0 -680 0 -680
-165 0 -165 0 0 326 c0 225 -3 323 -11 319 -5 -4 -49 -59 -96 -123 -48 -65
-103 -138 -124 -164 l-37 -48 -129 175 c-70 96 -130 174 -133 175 -3 0 -5
-154 -5 -342 l0 -343 -167 -3 -168 -2 0 695 0 695 103 0 102 -1 135 -191z
m1930 176 c39 -12 66 -29 105 -67 79 -80 87 -121 83 -427 -3 -244 -3 -245 -30
-296 -32 -60 -83 -108 -147 -136 -38 -17 -78 -22 -241 -29 -107 -4 -205 -5
-217 -2 l-23 5 0 -196 0 -196 -170 0 -170 0 0 680 0 680 378 0 c316 0 387 -3
432 -16z m1350 -109 l0 -125 -295 0 -295 0 0 -160 0 -160 216 0 216 0 -6 -22
c-3 -13 -6 -67 -6 -120 l0 -98 -212 0 -213 0 3 -179 3 -178 107 -6 c59 -4 191
-10 295 -13 l187 -7 0 -120 0 -119 -132 6 c-130 6 -216 10 -468 21 -69 3 -171
8 -227 11 l-103 6 0 694 0 694 465 0 465 0 0 -125z m969 110 c76 -20 154 -75
196 -138 53 -80 65 -144 65 -347 0 -193 -12 -267 -56 -333 -33 -50 -108 -103
-166 -118 -27 -7 -48 -17 -48 -23 0 -13 84 -170 207 -384 58 -101 103 -185
102 -186 -2 -2 -86 6 -186 17 l-182 21 -66 120 c-36 67 -98 185 -137 264 l-73
143 -33 -3 -33 -3 1 -244 1 -244 -68 7 c-37 3 -114 9 -170 13 l-103 6 0 724 0
723 348 0 c269 0 359 -3 401 -15z m-5387 -1725 c35 -16 119 -53 188 -82 118
-50 125 -55 128 -84 2 -24 -2 -33 -23 -44 -31 -16 -64 -7 -225 65 -58 26 -136
60 -175 76 -38 17 -97 42 -129 57 l-60 27 70 6 c145 12 161 10 226 -21z m689
-70 c19 -56 36 -95 40 -87 4 6 19 49 34 94 27 86 31 89 94 92 23 1 32 -2 29
-11 -3 -7 -31 -90 -63 -184 l-58 -172 -41 2 -41 2 -57 170 c-31 93 -57 175
-57 182 -1 8 14 12 43 12 l45 0 32 -100z m554 -80 c32 -99 56 -182 54 -185 -3
-2 -23 -1 -46 2 -33 4 -43 10 -47 29 -6 22 -12 24 -61 24 -41 0 -55 -4 -55
-14 0 -8 -7 -22 -16 -30 -19 -20 -84 -22 -84 -3 0 8 25 91 55 185 l56 172 43
0 42 0 59 -180z m310 102 l50 -77 3 79 3 78 31 -6 c17 -3 36 -6 42 -6 8 0 11
-53 11 -178 l0 -177 -35 0 c-32 0 -38 6 -85 75 l-50 75 -3 -71 -3 -72 -38 -4
-39 -3 -6 50 c-3 27 -6 110 -6 183 l0 132 38 -1 c35 0 40 -4 87 -77z m1112
-17 c1 -49 2 -111 2 -137 l1 -48 70 0 70 0 0 -45 0 -45 -115 0 -115 0 0 186 0
185 43 -3 42 -3 2 -90z m313 -41 l0 -135 -37 3 -38 3 -3 119 c-1 66 0 126 2
133 3 7 21 13 41 13 l35 0 0 -136z m310 94 l0 -43 -72 0 -73 0 -3 -32 c-3 -32
-2 -33 38 -33 45 0 56 -14 46 -55 -5 -21 -12 -25 -46 -25 l-40 0 0 -70 0 -70
-40 0 -40 0 0 185 0 185 115 0 115 0 0 -42z m400 2 l0 -40 -75 0 -75 0 0 -35
c0 -35 0 -35 45 -35 l45 0 0 -40 0 -40 -45 0 c-43 0 -45 -1 -45 -28 l0 -29 75
5 75 5 0 -47 0 -46 -120 0 -120 0 0 185 0 185 120 0 120 0 0 -40z m880 30 c23
-7 22 -8 -23 -29 -27 -11 -51 -21 -53 -21 -2 0 -55 -23 -117 -51 -185 -85
-285 -127 -317 -134 -37 -8 -80 16 -80 44 0 25 24 42 100 76 85 37 207 92 245
110 32 15 196 18 245 5z m-2401 -79 c23 -50 43 -61 107 -61 33 0 30 -10 -17
-53 -42 -39 -43 -42 -23 -109 7 -24 -14 -23 -46 2 -34 27 -68 25 -113 -5 -40
-28 -44 -23 -27 35 9 32 8 37 -32 77 -23 23 -40 45 -37 47 2 3 27 8 54 13 46
8 52 12 75 56 14 26 27 47 30 47 3 0 16 -22 29 -49z"/>
<path d="M4691 7497 c-49 -17 -76 -58 -76 -117 0 -59 27 -100 76 -117 25 -8
323 -12 1122 -12 1054 -1 1090 -1 1132 18 69 31 94 103 60 175 -22 45 -65 68
-123 65 -26 -2 -50 -8 -54 -13 -5 -8 -322 -12 -1022 -14 -910 -2 -1015 -1
-1010 13 5 12 -2 15 -32 14 -22 0 -54 -5 -73 -12z m2207 -47 c46 -28 60 -62
38 -95 l-16 -25 -1105 0 -1105 0 -16 25 c-17 27 -13 54 14 77 22 20 62 32 62
20 0 -5 -9 -12 -20 -15 -28 -7 -47 -52 -30 -72 11 -13 136 -15 1101 -15 1079
0 1088 0 1094 20 10 31 -3 59 -36 75 -28 15 -37 25 -21 25 4 0 22 -9 40 -20z"/>
<path d="M3146 7348 c-22 -32 -20 -55 9 -83 l24 -25 556 0 c478 0 560 2 585
15 53 27 48 97 -7 111 -18 5 -28 2 -35 -10 -8 -14 -58 -16 -538 -16 -456 0
-531 2 -544 15 -20 21 -32 19 -50 -7z"/>
<path d="M3392 7364 c7 -6 440 -6 447 1 2 3 -98 5 -224 5 -126 0 -226 -3 -223
-6z"/>
<path d="M3238 7353 c6 -2 18 -2 25 0 6 3 1 5 -13 5 -14 0 -19 -2 -12 -5z"/>
<path d="M2435 6896 c-53 -25 -84 -59 -103 -115 -14 -41 -16 -566 -2 -625 12
-54 38 -87 90 -113 44 -23 49 -23 435 -23 237 0 405 4 427 10 48 14 94 53 118
101 19 35 20 60 20 330 0 320 -4 349 -55 402 -53 55 -75 57 -496 57 -382 0
-384 0 -434 -24z m34 -113 c-57 -61 -64 -66 -67 -45 -6 43 63 112 112 112 15
0 4 -17 -45 -67z m838 32 l35 -35 -5 -192 c-3 -106 -6 -197 -6 -203 0 -5 2
-32 5 -59 5 -39 4 -47 -7 -40 -12 6 -12 5 0 -9 9 -12 10 -17 2 -17 -6 0 -28
-16 -47 -35 -19 -20 -39 -33 -44 -30 -6 4 -7 -2 -3 -11 5 -13 3 -16 -10 -11
-9 3 -16 3 -15 -1 1 -4 -2 -15 -6 -24 -7 -15 -12 -16 -29 -6 -20 10 -21 10 -9
-5 12 -15 11 -16 -16 -12 -24 3 -29 0 -25 -11 4 -11 -3 -15 -28 -14 -19 0
-119 -2 -224 -6 -104 -4 -188 -5 -185 -2 39 32 270 259 282 278 37 53 8 110
-57 110 -37 0 -61 -20 -343 -288 -83 -79 -108 -96 -127 -88 -29 11 -14 34 78
117 50 46 135 124 187 174 52 50 162 151 245 225 82 74 172 156 200 182 64 61
101 64 152 13z m30 -617 c-8 -62 -50 -100 -119 -105 -53 -4 -53 -4 -29 14 13
10 49 43 80 74 31 31 60 57 65 58 5 0 6 -18 3 -41z"/>
<path d="M3259 6363 c-12 -16 -12 -17 1 -7 8 6 22 14 30 17 13 5 12 6 -1 6 -9
1 -23 -7 -30 -16z"/>
<path d="M3305 6340 c3 -5 8 -10 11 -10 2 0 4 5 4 10 0 6 -5 10 -11 10 -5 0
-7 -4 -4 -10z"/>
<path d="M3079 6183 c-1 -5 -1 -11 0 -15 0 -5 -3 -8 -9 -8 -5 0 -10 -5 -10
-11 0 -8 5 -8 15 1 8 7 12 16 9 21 -3 5 0 9 6 9 6 0 13 -7 16 -15 4 -8 10 -12
15 -9 5 3 9 0 9 -7 0 -7 3 -9 7 -5 4 4 -3 16 -17 26 -27 21 -39 25 -41 13z"/>
<path d="M3996 6899 c-60 -22 -73 -33 -98 -82 -18 -37 -21 -65 -25 -321 -7
-319 -3 -363 35 -407 56 -68 63 -69 505 -69 337 0 403 2 435 16 51 21 90 61
102 104 12 44 12 592 0 645 -12 53 -38 86 -91 113 -44 23 -45 23 -430 21 -343
-2 -392 -4 -433 -20z m649 -90 c-45 -46 -312 -296 -529 -493 -77 -70 -142
-132 -144 -137 -4 -9 -32 -13 -32 -5 0 2 -2 11 -6 19 -3 9 84 99 258 264 422
400 414 393 456 393 l36 0 -39 -41z m205 -691 c-30 -28 -32 -28 -171 -28
l-140 0 82 78 c46 42 121 114 168 159 l86 81 3 -131 3 -132 -31 -27z"/>
<path d="M5251 6910 c-40 -9 -77 -36 -105 -74 -20 -26 -21 -40 -21 -371 0
-332 1 -344 21 -371 11 -16 40 -39 64 -51 43 -23 48 -23 389 -23 207 0 361 4
383 10 21 6 51 22 68 37 60 50 60 52 60 404 0 313 -1 322 -22 361 -12 21 -38
49 -58 61 -34 21 -43 22 -390 24 -195 1 -370 -2 -389 -7z m749 -89 c0 -5 -74
-80 -166 -166 l-165 -158 74 -43 c69 -40 147 -111 147 -135 0 -5 5 -7 10 -4 6
3 10 17 10 30 0 13 11 55 25 92 24 69 78 133 110 133 19 0 20 2 -11 -65 -15
-32 -44 -125 -65 -207 -21 -83 -44 -157 -50 -165 -10 -12 -10 -16 2 -24 8 -5
12 -10 9 -11 -3 -1 -89 -4 -193 -7 -172 -6 -187 -5 -187 11 0 24 33 39 91 41
27 1 49 3 49 5 0 10 -63 92 -70 92 -6 0 -12 0 -15 0 -3 0 -5 -3 -5 -7 0 -5 3
-8 8 -8 9 0 52 -42 52 -51 0 -4 -20 10 -44 29 -24 20 -66 45 -94 55 -61 24
-62 23 -62 -88 l0 -78 -76 -7 c-51 -5 -80 -3 -87 4 -20 20 12 38 71 40 19 1
22 6 21 39 -1 20 -4 48 -8 62 -7 25 -8 25 -15 3 -8 -24 -118 -118 -138 -118
-7 0 -14 8 -16 17 -2 11 26 48 78 99 l82 82 -11 43 c-19 75 -13 130 23 214 6
14 -4 16 -62 14 -45 -1 -76 3 -93 13 -16 10 -18 12 -4 8 18 -6 18 -4 -3 18
-13 13 -24 37 -25 53 -2 27 1 29 43 34 32 4 63 18 104 48 46 32 65 40 85 36
52 -12 70 -32 91 -102 20 -68 68 -148 95 -158 8 -4 27 9 46 30 17 20 92 93
165 162 118 110 136 123 154 114 11 -6 20 -14 20 -19z"/>
<path d="M7926 6787 c3 -10 9 -15 12 -12 3 3 0 11 -7 18 -10 9 -11 8 -5 -6z"/>
<path d="M7941 6755 c0 -5 6 -19 14 -29 8 -11 15 -15 15 -10 0 6 -7 19 -15 30
-8 10 -14 15 -14 9z"/>
<path d="M7990 6660 c6 -11 13 -20 16 -20 2 0 0 9 -6 20 -6 11 -13 20 -16 20
-2 0 0 -9 6 -20z"/>
<path d="M7829 6160 c-13 -10 -20 -19 -16 -20 4 0 17 9 29 20 28 26 17 26 -13
0z"/>
<path d="M6615 5641 c-52 -22 -67 -99 -26 -132 20 -17 41 -19 158 -19 167 0
193 10 193 78 0 58 -26 72 -137 72 -54 0 -114 2 -133 5 -19 3 -44 1 -55 -4z"/>
<path d="M1843 5543 c-9 -3 -13 -27 -13 -69 l0 -64 30 0 31 0 -3 67 c-3 68
-11 81 -45 66z"/>
<path d="M1830 5289 l0 -50 32 3 c31 3 32 5 33 51 1 47 1 47 -32 47 -33 0 -33
0 -33 -51z"/>
<path d="M4750 4991 c0 -5 -9 -11 -21 -14 -12 -3 -19 -12 -17 -19 6 -18 58
-26 86 -14 23 10 30 26 10 26 -6 0 -9 2 -7 5 8 7 49 -7 44 -15 -3 -5 -1 -11 5
-15 5 -3 10 2 10 13 0 10 -11 24 -25 30 -30 14 -85 16 -85 3z m23 -28 c-7 -2
-19 -2 -25 0 -7 3 -2 5 12 5 14 0 19 -2 13 -5z"/>
<path d="M2068 4943 c-33 -8 -36 -97 -5 -117 13 -9 26 -6 55 9 79 42 37 131
-50 108z m60 -26 c27 -32 -27 -100 -63 -80 -15 9 -15 11 -1 22 9 8 16 22 16
33 0 17 2 18 15 8 9 -7 18 -10 22 -6 4 3 -2 13 -13 21 -16 12 -16 14 -3 15 9
0 21 -6 27 -13z m-58 -32 c0 -8 -4 -15 -10 -15 -5 0 -10 7 -10 15 0 8 5 15 10
15 6 0 10 -7 10 -15z"/>
<path d="M4691 4924 c0 -11 3 -14 6 -6 3 7 2 16 -1 19 -3 4 -6 -2 -5 -13z"/>
<path d="M4840 4875 c-8 -9 -8 -15 -2 -15 12 0 26 19 19 26 -2 2 -10 -2 -17
-11z"/>
<path d="M4058 4713 c12 -2 30 -2 40 0 9 3 -1 5 -23 4 -22 0 -30 -2 -17 -4z"/>
<path d="M8292 5303 c1 -43 18 -74 18 -33 0 12 5 18 10 15 6 -3 10 4 10 17 0
18 2 20 10 8 8 -12 10 -11 10 6 0 16 -7 23 -30 26 -29 4 -29 4 -28 -39z"/>
<path d="M3024 4706 c-131 -32 -220 -163 -194 -282 29 -130 151 -224 276 -211
148 15 270 174 234 306 -37 138 -178 222 -316 187z m129 -100 c38 -15 97 -79
97 -104 0 -9 7 -29 15 -45 39 -75 -70 -186 -184 -187 -51 0 -132 40 -157 78
-26 39 -35 83 -22 100 10 12 13 11 19 -5 3 -10 6 3 5 29 -1 58 23 94 84 126
50 25 96 28 143 8z"/>
<path d="M3025 4538 c-34 -26 -55 -74 -48 -110 12 -61 108 -108 162 -78 49 26
75 104 50 153 -30 59 -112 76 -164 35z m85 -52 c6 -8 10 -25 8 -38 -2 -18 -9
-23 -33 -23 -24 0 -31 5 -33 23 -4 25 13 52 33 52 7 0 18 -7 25 -14z"/>
<path d="M7019 4706 c-127 -34 -213 -163 -189 -283 19 -92 78 -161 168 -196
151 -60 326 56 339 226 5 54 2 70 -20 114 -33 64 -97 119 -161 138 -58 18 -76
18 -137 1z m124 -100 c51 -22 98 -78 104 -125 3 -22 10 -41 16 -41 17 0 -2
-61 -29 -98 -82 -106 -265 -88 -324 32 l-20 42 25 64 c30 76 47 97 100 121 48
22 85 24 128 5z"/>
<path d="M7028 4545 c-16 -9 -33 -32 -43 -58 -15 -40 -15 -47 -2 -80 17 -40
60 -67 106 -67 39 0 96 50 105 91 7 38 -14 91 -45 113 -29 20 -85 20 -121 1z
m82 -70 c11 -20 11 -27 0 -40 -15 -18 -41 -20 -58 -3 -16 16 -15 33 4 52 22
23 39 20 54 -9z"/>
<path d="M6921 4444 c0 -11 3 -14 6 -6 3 7 2 16 -1 19 -3 4 -6 -2 -5 -13z"/>
<path d="M7390 4230 c-9 -6 -10 -10 -3 -10 6 0 15 5 18 10 8 12 4 12 -15 0z"/>
<path d="M3432 4230 c-18 -29 -15 -38 4 -12 9 13 14 25 12 27 -2 2 -9 -5 -16
-15z"/>
<path d="M3376 4168 c3 -5 10 -6 15 -3 13 9 11 12 -6 12 -8 0 -12 -4 -9 -9z"/>
<path d="M2930 3283 c0 -16 -109 -482 -129 -550 l-10 -33 151 0 c116 0 149 3
145 13 -2 6 -35 141 -73 300 -61 253 -84 328 -84 270z"/>
<path d="M5510 3209 l0 -241 112 3 c143 3 153 5 188 41 l30 30 0 167 c0 138
-3 171 -16 190 -28 39 -73 51 -199 51 l-115 0 0 -241z"/>
<path d="M7890 3204 l0 -249 113 1 c130 1 176 16 207 66 17 29 20 50 20 176 0
226 -14 242 -217 250 l-123 5 0 -249z"/>
<path d="M4045 1815 c-4 -11 -11 -28 -16 -37 -8 -15 -5 -18 22 -18 27 0 30 3
23 23 -3 12 -10 29 -15 37 -6 12 -9 12 -14 -5z"/>
<path d="M7145 8785 c-23 -70 -37 -87 -85 -108 -56 -25 -58 -37 -11 -51 43
-12 87 -57 95 -96 7 -37 21 -32 30 10 7 39 49 77 98 90 43 12 43 24 1 35 -48
11 -74 35 -98 88 -19 43 -24 49 -30 32z"/>
<path d="M2636 8574 c-133 -42 -218 -139 -247 -282 -16 -75 -4 -148 38 -230
76 -151 274 -223 438 -161 40 16 125 69 125 79 0 4 -24 11 -52 14 -143 19
-255 135 -257 267 -2 127 78 221 234 274 17 6 13 10 -25 27 -60 28 -187 33
-254 12z"/>
<path d="M7527 8328 c-32 -101 -61 -132 -156 -169 -34 -13 -61 -27 -61 -30 0
-3 24 -11 53 -18 101 -22 140 -64 172 -187 8 -31 16 -59 18 -61 2 -2 9 22 16
53 28 124 61 161 173 195 l71 22 -69 25 c-38 13 -79 31 -92 40 -29 19 -61 79
-82 156 l-17 59 -26 -85z"/>
<path d="M906 2465 c-55 -29 -75 -83 -52 -139 19 -45 52 -66 104 -66 37 0 50
6 78 34 89 89 -18 229 -130 171z"/>
<path d="M8940 2464 c-40 -29 -49 -46 -50 -92 0 -54 12 -77 50 -97 60 -31 126
-10 154 50 31 65 -12 138 -89 150 -30 5 -47 2 -65 -11z"/>
</g>
</svg>
